<svg height="500pt" viewBox="-3 0 500 500.14838" width="500pt" xmlns="http://www.w3.org/2000/svg"><path d="m138.921875 164.949219c-76.402344 12.800781-133.199219 80.398437-132.800781 158 0 22.800781 4.800781 44 13.199218 63.597656 5.601563 12.800781 23.199219 13.601563 30.402344 1.601563 38-64.800782 74.398438-131.601563 108.398438-198.800782 6.398437-12.398437-4-26.800781-17.601563-24.398437-.796875-.402344-1.199219 0-1.597656 0zm0 0" fill="#d3d8dd"/><path d="m204.519531 173.75c-50 85.597656-103.597656 169.597656-160 250.796875l-4 6c28.800781 35.203125 73.203125 57.601563 122.402344 57.601563 88.398437 0 160-71.601563 160-160 0-74-50.402344-136.398438-118.402344-154.398438zm0 0" fill="#d3d8dd"/><g fill="#444b54"><path d="m482.921875 500.148438c-3.199219 0-6.402344-1.199219-8.800781-4l-5.601563-6c-42-46-72.796875-78.800782-57.199219-152.398438 1.199219-6.402344 7.601563-10.800781 14.402344-9.203125 6.398438 1.203125 10.796875 7.601563 9.199219 14.402344-12.800781 61.199219 11.199219 87.597656 51.597656 131.199219l5.601563 6c4.398437 4.800781 4 12.398437-.800782 16.800781-2.398437 2-5.597656 3.199219-8.398437 3.199219zm0 0"/><path d="m479.722656 106.949219c-8.402344-40.402344-34.402344-72.800781-75.601562-93.199219-67.601563-34-135.199219-4-180.800782 79.597656-3.199218 6-6.398437 11.601563-9.597656 17.601563-2.800781 5.199219-.402344 12.800781 5.199219 15.597656 3.597656 2 7.597656 2 10.800781 0l-10.800781 19.601563c-52.800781 91.601562-110 182-170.402344 268.800781l-46.398437 66.398437c-3.601563 5.601563-2.398438 12.800782 3.199218 16.800782 2 1.601562 4.402344 2 6.800782 2 3.601562 0 7.601562-2 10-5.199219l46.398437-66.800781c60.800781-87.199219 118.402344-178.398438 171.601563-270.398438l30-52.402344c4.398437-7.597656 5.601562-16 3.199218-24.398437-1.199218-4.402344-3.199218-8.402344-6-11.601563 50-62 103.601563-46 126.402344-34.398437 34.398438 17.199219 56 43.597656 62.796875 76.800781 8.800781 43.597656-8.398437 96-46.398437 140.796875-27.601563 32.402344-67.199219 35.203125-92.398438 23.601563-23.203125-10.800782-34.800781-32.398438-30.800781-58 3.597656-22.398438 16.398437-38.398438 35.597656-43.199219 22.800781-6 48.800781 4.800781 66.402344 27.199219 4 5.199218 11.597656 6 16.800781 2 5.199219-4 6-11.601563 2-16.800782-23.203125-30-59.203125-44-91.203125-36-28.398437 7.199219-48.398437 30.800782-53.199219 62.800782-5.597656 36.398437 11.199219 68.398437 44.402344 83.601562 11.597656 5.199219 25.199219 8.398438 40 8.398438 27.199219 0 57.199219-10.800782 80.796875-38 42.402344-50.398438 61.601563-110.800782 51.203125-161.199219zm0 0"/></g></svg>